<svg xmlns="http://www.w3.org/2000/svg" viewBox="0 0 512 512">
  <defs>
    <linearGradient id="bg" x1="0" y1="0" x2="1" y2="1">
      <stop offset="0%" stop-color="#e74c3c"/>
      <stop offset="100%" stop-color="#c0392b"/>
    </linearGradient>
  </defs>
  <rect width="512" height="512" rx="80" fill="url(#bg)"/>
  <circle cx="256" cy="256" r="140" fill="#fff" opacity="0.15"/>
  <path d="M256 156c-12 0-22 10-22 22v56h-56c-12 0-22 10-22 22s10 22 22 22h56v56c0 12 10 22 22 22s22-10 22-22v-56h56c12 0 22-10 22-22s-10-22-22-22h-56v-56c0-12-10-22-22-22z" fill="#fff" opacity="0.95"/>
  <path d="M160 380l192-192" stroke="#fff" stroke-width="24" stroke-linecap="round" opacity="0.25"/>
  <circle cx="370" cy="142" r="20" fill="#fff" opacity="0.2"/>
</svg>
